<svg xmlns="http://www.w3.org/2000/svg" xmlns:xlink="http://www.w3.org/1999/xlink" version="1.1" id="Capa_1" x="0px" y="0px" viewBox="0 0 512 512" style="enable-background:new 0 0 512 512;" xml:space="preserve" width="512" height="512" class=""><g><path style="fill:#D39C6E" d="M178.945,212.568V163.51h154.112v49.058l26.122,18.024v-80.144c0-7.21-5.841-13.061-13.061-13.061  H165.884c-7.21,0-13.061,5.851-13.061,13.061v80.154L178.945,212.568z" data-original="#F9AC30" class="" data-old_color="#F9AC30"></path><polyline style="fill:#0E6A8E;" points="178.945,163.51 333.057,163.51 461.172,0.004 307.06,0.004 256.006,65.164 " data-original="#0E6A8E"></polyline><circle style="fill:#D39C6E" cx="256" cy="352.381" r="159.619" data-original="#F9AC30" class="" data-old_color="#F9AC30"></circle><circle style="fill:#F1DBD0" cx="256" cy="352.381" r="119.495" data-original="#DD8D19" class="active-path" data-old_color="#DD8D19"></circle><polygon style="fill:#257AA5;" points="204.94,0 50.828,0 178.945,163.51 333.057,163.51 " data-original="#257AA5"></polygon><polygon style="fill:#FCD42D;" points="167.999,0 87.768,0 215.886,163.51 296.117,163.51 " data-original="#FCD42D" class=""></polygon><polygon style="fill:#D39C6E" points="256.003,264.327 281.883,316.764 339.75,325.172 297.876,365.989 307.762,423.623   256.003,396.411 204.245,423.623 214.131,365.989 172.258,325.172 230.124,316.764 " data-original="#F9AC30" class="" data-old_color="#F9AC30"></polygon></g> </svg>