<svg id="Capa_1" enable-background="new 0 0 512 512" height="512" viewBox="0 0 512 512" width="512" xmlns="http://www.w3.org/2000/svg"><g><g><g><path d="m408.283 268.192c-.756 0-1.525-.114-2.285-.353-4.01-1.261-6.239-5.533-4.978-9.543l30.343-96.516c1.261-4.01 5.531-6.238 9.544-4.978 4.01 1.261 6.239 5.534 4.978 9.544l-30.343 96.515c-1.021 3.251-4.023 5.331-7.259 5.331z" fill="#7a6d79"/></g><g><path d="m88.494 268.192c-3.236 0-6.237-2.08-7.259-5.331l-30.343-96.515c-1.261-4.01.968-8.283 4.978-9.544 4.01-1.263 8.283.968 9.544 4.978l30.343 96.516c1.261 4.01-.968 8.282-4.978 9.543-.76.239-1.529.353-2.285.353z" fill="#7a6d79"/></g><g><path d="m39.843 148.84v-133.617c0-8.407 6.816-15.223 15.223-15.223h401.867c8.407 0 15.223 6.816 15.223 15.223v133.617c0 8.407-6.816 15.223-15.223 15.223h-401.867c-8.407 0-15.223-6.816-15.223-15.223z" fill="#918291"/><g fill="#fff"><path d="m390.686 107.365h-20.152v-17.722h18.105c4.204 0 7.611-3.408 7.611-7.611s-3.408-7.611-7.611-7.611h-18.105v-17.723h20.152c4.204 0 7.612-3.408 7.612-7.611s-3.408-7.611-7.612-7.611h-27.763c-4.204 0-7.612 3.408-7.612 7.611v65.89c0 4.204 3.408 7.611 7.612 7.611h27.763c4.204 0 7.612-3.408 7.612-7.611s-3.409-7.612-7.612-7.612z"/><path d="m155.773 41.681c-3.992-1.326-8.297.834-9.623 4.824l-16.037 48.274-16.832-48.492c-1.378-3.972-5.717-6.071-9.687-4.695-3.971 1.379-6.073 5.716-4.695 9.687l22.754 65.552c1.291 3.632 4.736 6.06 8.586 6.06h.064c3.876-.027 7.317-2.51 8.581-6.229l21.712-65.357c1.326-3.99-.833-8.298-4.823-9.624z"/><path d="m326.119 41.171h-36.723c-4.204 0-7.611 3.408-7.611 7.611s3.408 7.611 7.611 7.611h10.676v58.886c0 4.204 3.408 7.611 7.612 7.611s7.612-3.408 7.612-7.611v-58.885h10.825c4.204 0 7.612-3.408 7.612-7.611s-3.41-7.612-7.614-7.612z"/><path d="m225.25 41.171c-22.53 0-40.86 18.33-40.86 40.86s18.33 40.86 40.86 40.86 40.86-18.33 40.86-40.86-18.33-40.86-40.86-40.86zm0 66.497c-14.136 0-25.637-11.501-25.637-25.637s11.5-25.637 25.637-25.637 25.637 11.5 25.637 25.637-11.5 25.637-25.637 25.637z"/></g></g></g><g><g><path d="m313.674 501.851v-98.94c0-5.7 3.406-10.848 8.652-13.077l56.214-23.883c5.811-2.033 10.356-6.643 12.304-12.484l36.036-108.042c3.413-10.232-1.637-21.601-11.742-25.376-10.609-3.963-22.297 1.684-25.85 12.335l-33.098 99.233-70.023 28.348c-6.216 2.517-13.004-2.058-13.004-8.765v-12.019h-49.549v12.019c0 6.707-6.788 11.282-13.004 8.765l-70.023-28.348-33.098-99.233c-3.552-10.651-15.241-16.298-25.85-12.335-10.105 3.775-15.155 15.143-11.742 25.376l36.036 108.042c1.948 5.841 6.492 10.451 12.304 12.484l56.214 23.883c5.246 2.229 8.652 7.377 8.652 13.077v98.94c0 5.605 4.544 10.149 10.149 10.149h110.273c5.605 0 10.149-4.544 10.149-10.149z" fill="#8ac9fe"/><path d="m286.167 359.966c-6.217 2.517-13.004-2.058-13.004-8.765v-12.019h-49.549v12.019c0 6.707-6.788 11.282-13.004 8.765l-2.943-1.191c9.047 12.738 23.908 21.058 40.722 21.058s31.675-8.32 40.722-21.058z" fill="#d78878"/><g><g><path d="m299.901 283.918h-103.025v-56.872c0-17.97 14.582-32.538 32.57-32.538h37.884c17.988 0 32.57 14.568 32.57 32.538v56.872z" fill="#918291"/><path d="m288.202 202.072c-.018 6.983-1.075 20.263-9.156 33.795-3.571 5.98-7.617 10.509-11.112 13.798l-1.341 34.254h33.308v-56.872c0-10.036-4.551-19.007-11.699-24.975z" fill="#7a6d79"/><g><path d="m299.901 269.187v28.719 4.901c0 9.856-3.92 19.308-10.896 26.278l-5.11 5.104c-5.521 5.515-13.01 8.614-20.818 8.614h-29.375c-7.808 0-15.297-3.099-20.818-8.614l-5.11-5.104c-6.977-6.969-10.896-16.422-10.896-26.278v-4.901-28.719c6.708 1.65 21.979 4.444 40.022-1.035 15.854-4.814 26.161-13.682 31.036-18.488 1.227 2.721 4.693 9.435 12.402 14.355 8.369 5.343 16.642 5.314 19.563 5.168z" fill="#ffcebf"/></g><path d="m287.359 359.484-1.192.482c-6.217 2.517-13.004-2.058-13.004-8.765v-12.019h-49.549v12.019c0 1.168-.217 2.266-.59 3.279l.007.007c5.521 5.515 13.01 8.614 20.818 8.614h29.376c4.985 0 9.838-1.268 14.134-3.617z" fill="#ca6e59"/><g><path d="m299.901 269.187v28.719 4.901c0 9.856-3.92 19.308-10.896 26.278l-5.11 5.104c-5.521 5.515-13.01 8.614-20.818 8.614h-29.375c-7.808 0-15.297-3.099-20.818-8.614l-5.11-5.104c-6.977-6.969-10.896-16.422-10.896-26.278v-4.901-28.719c6.708 1.65 21.979 4.444 40.022-1.035 15.854-4.814 26.161-13.682 31.036-18.488 1.227 2.721 4.693 9.435 12.402 14.355 8.369 5.343 16.642 5.314 19.563 5.168z" fill="#d78878"/></g></g></g></g><g fill="#d78878"><path d="m426.88 245.426c3.413-10.232-1.637-21.601-11.742-25.376-10.609-3.963-22.297 1.684-25.85 12.335l-3.099 9.292 35.5 19.311z"/><path d="m107.489 232.385c-3.552-10.651-15.241-16.298-25.85-12.335-10.105 3.775-15.154 15.143-11.742 25.376l6.209 18.617.014-.004 35.487-19.304z"/></g></g></g></svg>